<mxfile host="app.diagrams.net" agent="Mozilla/5.0 (Windows NT 10.0; Win64; x64) AppleWebKit/537.36 (KHTML, like Gecko) Chrome/135.0.0.0 Safari/537.36 Edg/135.0.0.0" version="26.2.12">
  <diagram id="6a731a19-8d31-9384-78a2-239565b7b9f0" name="Page-1">
    <mxGraphModel dx="1678" dy="928" grid="1" gridSize="10" guides="1" tooltips="1" connect="1" arrows="1" fold="1" page="1" pageScale="1" pageWidth="1169" pageHeight="827" background="none" math="1" shadow="0">
      <root>
        <mxCell id="0" />
        <mxCell id="1" parent="0" />
        <mxCell id="45" value="" style="edgeStyle=elbowEdgeStyle;elbow=horizontal;exitX=1;exitY=0.5;exitPerimeter=0;entryX=0.905;entryY=0.5;entryPerimeter=0;fontStyle=1;strokeColor=#003366;strokeWidth=1;html=1;" parent="1" target="34" edge="1">
          <mxGeometry width="100" height="100" as="geometry">
            <mxPoint x="380.5" y="1119.25" as="sourcePoint" />
            <mxPoint x="100" as="targetPoint" />
            <Array as="points">
              <mxPoint x="950" y="1320" />
            </Array>
          </mxGeometry>
        </mxCell>
        <mxCell id="6gbHNIe6kbGb1KUCdrM2-60" style="edgeStyle=orthogonalEdgeStyle;rounded=0;orthogonalLoop=1;jettySize=auto;html=1;exitX=0.5;exitY=1;exitDx=0;exitDy=0;exitPerimeter=0;entryX=0.5;entryY=0;entryDx=0;entryDy=0;" edge="1" parent="1" source="HDR-ENTHewPlgLy2R7sd-55" target="HDR-ENTHewPlgLy2R7sd-56">
          <mxGeometry relative="1" as="geometry" />
        </mxCell>
        <mxCell id="HDR-ENTHewPlgLy2R7sd-55" value="&lt;font style=&quot;font-size: 15px;&quot;&gt;Start&lt;/font&gt;" style="shape=mxgraph.flowchart.terminator;strokeWidth=2;gradientColor=none;gradientDirection=north;fontStyle=0;html=1;" parent="1" vertex="1">
          <mxGeometry x="140" y="40" width="130" height="40" as="geometry" />
        </mxCell>
        <mxCell id="HDR-ENTHewPlgLy2R7sd-58" style="edgeStyle=orthogonalEdgeStyle;rounded=0;orthogonalLoop=1;jettySize=auto;html=1;exitX=0.5;exitY=1;exitDx=0;exitDy=0;entryX=0.5;entryY=0;entryDx=0;entryDy=0;" parent="1" source="HDR-ENTHewPlgLy2R7sd-56" target="HDR-ENTHewPlgLy2R7sd-57" edge="1">
          <mxGeometry relative="1" as="geometry" />
        </mxCell>
        <mxCell id="HDR-ENTHewPlgLy2R7sd-56" value="&lt;font style=&quot;font-size: 15px;&quot;&gt;Compute `\hat{L}`&lt;/font&gt;" style="rounded=0;whiteSpace=wrap;html=1;strokeWidth=2;" parent="1" vertex="1">
          <mxGeometry x="120" y="110" width="170" height="30" as="geometry" />
        </mxCell>
        <mxCell id="6gbHNIe6kbGb1KUCdrM2-79" value="" style="edgeStyle=orthogonalEdgeStyle;rounded=0;orthogonalLoop=1;jettySize=auto;html=1;endArrow=none;startFill=0;" edge="1" parent="1" source="HDR-ENTHewPlgLy2R7sd-57" target="HDR-ENTHewPlgLy2R7sd-56">
          <mxGeometry relative="1" as="geometry" />
        </mxCell>
        <mxCell id="HDR-ENTHewPlgLy2R7sd-57" value="&lt;font style=&quot;font-size: 15px;&quot;&gt;Construct `Q_{p \times 2m}`&lt;/font&gt;" style="rounded=0;whiteSpace=wrap;html=1;strokeWidth=2;" parent="1" vertex="1">
          <mxGeometry x="120" y="160" width="170" height="30" as="geometry" />
        </mxCell>
        <mxCell id="HDR-ENTHewPlgLy2R7sd-59" value="&lt;font style=&quot;font-size: 15px;&quot;&gt;`i&amp;lt;p?`&lt;/font&gt;" style="shape=mxgraph.flowchart.decision;strokeWidth=2;gradientColor=none;gradientDirection=north;fontStyle=0;html=1;" parent="1" vertex="1">
          <mxGeometry x="156" y="320" width="98" height="57" as="geometry" />
        </mxCell>
        <mxCell id="HDR-ENTHewPlgLy2R7sd-60" value="&lt;font style=&quot;font-size: 15px;&quot;&gt;`\tilde{z}_i=`LaplSolve(`\hat{L},q_i,\delta`)&lt;/font&gt;" style="rounded=0;whiteSpace=wrap;html=1;strokeWidth=2;" parent="1" vertex="1">
          <mxGeometry x="137.5" y="540" width="135" height="60" as="geometry" />
        </mxCell>
        <mxCell id="HDR-ENTHewPlgLy2R7sd-61" style="edgeStyle=orthogonalEdgeStyle;rounded=0;orthogonalLoop=1;jettySize=auto;html=1;exitX=0.5;exitY=1;exitDx=0;exitDy=0;exitPerimeter=0;entryX=0.5;entryY=0;entryDx=0;entryDy=0;" parent="1" source="HDR-ENTHewPlgLy2R7sd-59" target="6gbHNIe6kbGb1KUCdrM2-57" edge="1">
          <mxGeometry relative="1" as="geometry">
            <mxPoint x="205" y="450" as="targetPoint" />
          </mxGeometry>
        </mxCell>
        <mxCell id="HDR-ENTHewPlgLy2R7sd-62" value="&lt;font style=&quot;font-size: 14px;&quot;&gt;Yes&lt;/font&gt;" style="edgeLabel;html=1;align=center;verticalAlign=middle;resizable=0;points=[];" parent="HDR-ENTHewPlgLy2R7sd-61" vertex="1" connectable="0">
          <mxGeometry x="-0.2919" relative="1" as="geometry">
            <mxPoint as="offset" />
          </mxGeometry>
        </mxCell>
        <mxCell id="HDR-ENTHewPlgLy2R7sd-63" value="" style="endArrow=classic;html=1;rounded=0;exitX=0.009;exitY=0.39;exitDx=0;exitDy=0;exitPerimeter=0;" parent="1" source="HDR-ENTHewPlgLy2R7sd-60" edge="1">
          <mxGeometry width="50" height="50" relative="1" as="geometry">
            <mxPoint x="90" y="420" as="sourcePoint" />
            <mxPoint x="150" y="350" as="targetPoint" />
            <Array as="points">
              <mxPoint x="100" y="563" />
              <mxPoint x="100" y="350" />
            </Array>
          </mxGeometry>
        </mxCell>
        <mxCell id="HDR-ENTHewPlgLy2R7sd-64" style="edgeStyle=orthogonalEdgeStyle;rounded=0;orthogonalLoop=1;jettySize=auto;html=1;exitX=0.5;exitY=1;exitDx=0;exitDy=0;entryX=0.5;entryY=0;entryDx=0;entryDy=0;" parent="1" source="HDR-ENTHewPlgLy2R7sd-57" target="6gbHNIe6kbGb1KUCdrM2-80" edge="1">
          <mxGeometry relative="1" as="geometry" />
        </mxCell>
        <mxCell id="HDR-ENTHewPlgLy2R7sd-65" value="" style="endArrow=classic;html=1;rounded=0;exitX=1;exitY=0.5;exitDx=0;exitDy=0;exitPerimeter=0;entryX=1;entryY=0.5;entryDx=0;entryDy=0;" parent="1" source="HDR-ENTHewPlgLy2R7sd-59" target="HDR-ENTHewPlgLy2R7sd-66" edge="1">
          <mxGeometry width="50" height="50" relative="1" as="geometry">
            <mxPoint x="340" y="330" as="sourcePoint" />
            <mxPoint x="210" y="520" as="targetPoint" />
            <Array as="points">
              <mxPoint x="310" y="350" />
              <mxPoint x="310" y="660" />
            </Array>
          </mxGeometry>
        </mxCell>
        <mxCell id="6gbHNIe6kbGb1KUCdrM2-56" value="&lt;font style=&quot;font-size: 14px;&quot;&gt;No&lt;/font&gt;" style="edgeLabel;html=1;align=center;verticalAlign=middle;resizable=0;points=[];" vertex="1" connectable="0" parent="HDR-ENTHewPlgLy2R7sd-65">
          <mxGeometry x="0.0166" relative="1" as="geometry">
            <mxPoint as="offset" />
          </mxGeometry>
        </mxCell>
        <mxCell id="HDR-ENTHewPlgLy2R7sd-66" value="&lt;font style=&quot;font-size: 15px;&quot;&gt;Compute `\Omega_{u,v}`&lt;/font&gt;&lt;div&gt;&lt;font style=&quot;font-size: 15px;&quot;&gt;using `\tilde{z}`&lt;/font&gt;&lt;/div&gt;" style="rounded=0;whiteSpace=wrap;html=1;strokeWidth=2;" parent="1" vertex="1">
          <mxGeometry x="140" y="630" width="136" height="60" as="geometry" />
        </mxCell>
        <mxCell id="6gbHNIe6kbGb1KUCdrM2-58" style="edgeStyle=orthogonalEdgeStyle;rounded=0;orthogonalLoop=1;jettySize=auto;html=1;exitX=0.5;exitY=1;exitDx=0;exitDy=0;entryX=0.5;entryY=0;entryDx=0;entryDy=0;" edge="1" parent="1" source="6gbHNIe6kbGb1KUCdrM2-57" target="HDR-ENTHewPlgLy2R7sd-60">
          <mxGeometry relative="1" as="geometry" />
        </mxCell>
        <mxCell id="6gbHNIe6kbGb1KUCdrM2-57" value="&lt;span style=&quot;font-size: 15px;&quot;&gt;`q_i^\top=e_i^\topQ\hat{W}^{1/2}\hat{B}`&lt;/span&gt;" style="rounded=0;whiteSpace=wrap;html=1;strokeWidth=2;" vertex="1" parent="1">
          <mxGeometry x="137.5" y="450" width="135" height="60" as="geometry" />
        </mxCell>
        <mxCell id="6gbHNIe6kbGb1KUCdrM2-77" value="&lt;font style=&quot;font-size: 18px;&quot;&gt;Flow chart of SovlerRD&lt;/font&gt;" style="text;html=1;align=center;verticalAlign=middle;resizable=0;points=[];autosize=1;strokeColor=none;fillColor=none;" vertex="1" parent="1">
          <mxGeometry x="103" y="703" width="210" height="40" as="geometry" />
        </mxCell>
        <mxCell id="6gbHNIe6kbGb1KUCdrM2-78" value="&lt;font style=&quot;font-size: 18px;&quot;&gt;Flow chart of RandomWalkRD&lt;/font&gt;" style="text;html=1;align=center;verticalAlign=middle;resizable=0;points=[];autosize=1;strokeColor=none;fillColor=none;" vertex="1" parent="1">
          <mxGeometry x="395" y="703" width="260" height="40" as="geometry" />
        </mxCell>
        <mxCell id="6gbHNIe6kbGb1KUCdrM2-80" value="&lt;font style=&quot;font-size: 15px;&quot;&gt;Initialize`: i=0,`&lt;/font&gt;&lt;div&gt;&lt;font style=&quot;font-size: 15px;&quot;&gt;`p=\ceil {24\log {2n}/\epsilon^2} `&lt;/font&gt;&lt;/div&gt;" style="rounded=0;whiteSpace=wrap;html=1;strokeWidth=2;" vertex="1" parent="1">
          <mxGeometry x="120" y="220" width="170" height="70" as="geometry" />
        </mxCell>
        <mxCell id="6gbHNIe6kbGb1KUCdrM2-81" style="edgeStyle=orthogonalEdgeStyle;rounded=0;orthogonalLoop=1;jettySize=auto;html=1;exitX=0.5;exitY=1;exitDx=0;exitDy=0;entryX=0.5;entryY=0;entryDx=0;entryDy=0;entryPerimeter=0;" edge="1" parent="1" source="6gbHNIe6kbGb1KUCdrM2-80" target="HDR-ENTHewPlgLy2R7sd-59">
          <mxGeometry relative="1" as="geometry" />
        </mxCell>
        <mxCell id="6gbHNIe6kbGb1KUCdrM2-82" style="edgeStyle=orthogonalEdgeStyle;rounded=0;orthogonalLoop=1;jettySize=auto;html=1;exitX=0.5;exitY=1;exitDx=0;exitDy=0;exitPerimeter=0;entryX=0.5;entryY=0;entryDx=0;entryDy=0;" edge="1" parent="1" source="6gbHNIe6kbGb1KUCdrM2-83" target="6gbHNIe6kbGb1KUCdrM2-85">
          <mxGeometry relative="1" as="geometry" />
        </mxCell>
        <mxCell id="6gbHNIe6kbGb1KUCdrM2-83" value="&lt;font style=&quot;font-size: 15px;&quot;&gt;Start&lt;/font&gt;" style="shape=mxgraph.flowchart.terminator;strokeWidth=2;gradientColor=none;gradientDirection=north;fontStyle=0;html=1;" vertex="1" parent="1">
          <mxGeometry x="450" y="30" width="130" height="40" as="geometry" />
        </mxCell>
        <mxCell id="6gbHNIe6kbGb1KUCdrM2-84" style="edgeStyle=orthogonalEdgeStyle;rounded=0;orthogonalLoop=1;jettySize=auto;html=1;exitX=0.5;exitY=1;exitDx=0;exitDy=0;entryX=0.5;entryY=0;entryDx=0;entryDy=0;" edge="1" parent="1" source="6gbHNIe6kbGb1KUCdrM2-85" target="6gbHNIe6kbGb1KUCdrM2-87">
          <mxGeometry relative="1" as="geometry" />
        </mxCell>
        <mxCell id="6gbHNIe6kbGb1KUCdrM2-85" value="&lt;font style=&quot;font-size: 15px;&quot;&gt;Compute `\hat{L}`&lt;/font&gt;" style="rounded=0;whiteSpace=wrap;html=1;strokeWidth=2;" vertex="1" parent="1">
          <mxGeometry x="430" y="100" width="170" height="30" as="geometry" />
        </mxCell>
        <mxCell id="6gbHNIe6kbGb1KUCdrM2-86" value="" style="edgeStyle=orthogonalEdgeStyle;rounded=0;orthogonalLoop=1;jettySize=auto;html=1;endArrow=none;startFill=0;" edge="1" parent="1" source="6gbHNIe6kbGb1KUCdrM2-87" target="6gbHNIe6kbGb1KUCdrM2-85">
          <mxGeometry relative="1" as="geometry" />
        </mxCell>
        <mxCell id="6gbHNIe6kbGb1KUCdrM2-87" value="&lt;font style=&quot;font-size: 15px;&quot;&gt;Construct `Q_{p \times 2m}`&lt;/font&gt;" style="rounded=0;whiteSpace=wrap;html=1;strokeWidth=2;" vertex="1" parent="1">
          <mxGeometry x="430" y="150" width="170" height="30" as="geometry" />
        </mxCell>
        <mxCell id="6gbHNIe6kbGb1KUCdrM2-88" value="&lt;font style=&quot;font-size: 15px;&quot;&gt;`i&amp;lt;p?`&lt;/font&gt;" style="shape=mxgraph.flowchart.decision;strokeWidth=2;gradientColor=none;gradientDirection=north;fontStyle=0;html=1;" vertex="1" parent="1">
          <mxGeometry x="466" y="310" width="98" height="57" as="geometry" />
        </mxCell>
        <mxCell id="6gbHNIe6kbGb1KUCdrM2-89" value="&lt;font style=&quot;font-size: 15px;&quot;&gt;`\tilde{z}_i=`LaplSolve(`\hat{L},q_i,\delta`)&lt;/font&gt;" style="rounded=0;whiteSpace=wrap;html=1;strokeWidth=2;" vertex="1" parent="1">
          <mxGeometry x="447.5" y="530" width="135" height="60" as="geometry" />
        </mxCell>
        <mxCell id="6gbHNIe6kbGb1KUCdrM2-90" style="edgeStyle=orthogonalEdgeStyle;rounded=0;orthogonalLoop=1;jettySize=auto;html=1;exitX=0.5;exitY=1;exitDx=0;exitDy=0;exitPerimeter=0;entryX=0.5;entryY=0;entryDx=0;entryDy=0;" edge="1" parent="1" source="6gbHNIe6kbGb1KUCdrM2-88" target="6gbHNIe6kbGb1KUCdrM2-98">
          <mxGeometry relative="1" as="geometry">
            <mxPoint x="515" y="440" as="targetPoint" />
          </mxGeometry>
        </mxCell>
        <mxCell id="6gbHNIe6kbGb1KUCdrM2-91" value="&lt;font style=&quot;font-size: 14px;&quot;&gt;Yes&lt;/font&gt;" style="edgeLabel;html=1;align=center;verticalAlign=middle;resizable=0;points=[];" vertex="1" connectable="0" parent="6gbHNIe6kbGb1KUCdrM2-90">
          <mxGeometry x="-0.2919" relative="1" as="geometry">
            <mxPoint as="offset" />
          </mxGeometry>
        </mxCell>
        <mxCell id="6gbHNIe6kbGb1KUCdrM2-92" value="" style="endArrow=classic;html=1;rounded=0;exitX=0.009;exitY=0.39;exitDx=0;exitDy=0;exitPerimeter=0;" edge="1" parent="1" source="6gbHNIe6kbGb1KUCdrM2-89">
          <mxGeometry width="50" height="50" relative="1" as="geometry">
            <mxPoint x="400" y="410" as="sourcePoint" />
            <mxPoint x="460" y="340" as="targetPoint" />
            <Array as="points">
              <mxPoint x="410" y="553" />
              <mxPoint x="410" y="340" />
            </Array>
          </mxGeometry>
        </mxCell>
        <mxCell id="6gbHNIe6kbGb1KUCdrM2-93" style="edgeStyle=orthogonalEdgeStyle;rounded=0;orthogonalLoop=1;jettySize=auto;html=1;exitX=0.5;exitY=1;exitDx=0;exitDy=0;entryX=0.5;entryY=0;entryDx=0;entryDy=0;" edge="1" parent="1" source="6gbHNIe6kbGb1KUCdrM2-87" target="6gbHNIe6kbGb1KUCdrM2-99">
          <mxGeometry relative="1" as="geometry" />
        </mxCell>
        <mxCell id="6gbHNIe6kbGb1KUCdrM2-94" value="" style="endArrow=classic;html=1;rounded=0;exitX=1;exitY=0.5;exitDx=0;exitDy=0;exitPerimeter=0;entryX=1;entryY=0.5;entryDx=0;entryDy=0;" edge="1" parent="1" source="6gbHNIe6kbGb1KUCdrM2-88" target="6gbHNIe6kbGb1KUCdrM2-96">
          <mxGeometry width="50" height="50" relative="1" as="geometry">
            <mxPoint x="650" y="320" as="sourcePoint" />
            <mxPoint x="520" y="510" as="targetPoint" />
            <Array as="points">
              <mxPoint x="620" y="340" />
              <mxPoint x="620" y="650" />
            </Array>
          </mxGeometry>
        </mxCell>
        <mxCell id="6gbHNIe6kbGb1KUCdrM2-95" value="&lt;font style=&quot;font-size: 14px;&quot;&gt;No&lt;/font&gt;" style="edgeLabel;html=1;align=center;verticalAlign=middle;resizable=0;points=[];" vertex="1" connectable="0" parent="6gbHNIe6kbGb1KUCdrM2-94">
          <mxGeometry x="0.0166" relative="1" as="geometry">
            <mxPoint as="offset" />
          </mxGeometry>
        </mxCell>
        <mxCell id="6gbHNIe6kbGb1KUCdrM2-96" value="&lt;font style=&quot;font-size: 15px;&quot;&gt;Compute `\Omega_{u,v}`&lt;/font&gt;&lt;div&gt;&lt;font style=&quot;font-size: 15px;&quot;&gt;using `\tilde{z}`&lt;/font&gt;&lt;/div&gt;" style="rounded=0;whiteSpace=wrap;html=1;strokeWidth=2;" vertex="1" parent="1">
          <mxGeometry x="450" y="620" width="136" height="60" as="geometry" />
        </mxCell>
        <mxCell id="6gbHNIe6kbGb1KUCdrM2-97" style="edgeStyle=orthogonalEdgeStyle;rounded=0;orthogonalLoop=1;jettySize=auto;html=1;exitX=0.5;exitY=1;exitDx=0;exitDy=0;entryX=0.5;entryY=0;entryDx=0;entryDy=0;" edge="1" parent="1" source="6gbHNIe6kbGb1KUCdrM2-98" target="6gbHNIe6kbGb1KUCdrM2-89">
          <mxGeometry relative="1" as="geometry" />
        </mxCell>
        <mxCell id="6gbHNIe6kbGb1KUCdrM2-98" value="&lt;span style=&quot;font-size: 15px;&quot;&gt;`q_i^\top=e_i^\topQ\hat{W}^{1/2}\hat{B}`&lt;/span&gt;" style="rounded=0;whiteSpace=wrap;html=1;strokeWidth=2;" vertex="1" parent="1">
          <mxGeometry x="447.5" y="440" width="135" height="60" as="geometry" />
        </mxCell>
        <mxCell id="6gbHNIe6kbGb1KUCdrM2-99" value="&lt;font style=&quot;font-size: 15px;&quot;&gt;Initialize`: i=0,`&lt;/font&gt;&lt;div&gt;&lt;font style=&quot;font-size: 15px;&quot;&gt;`p=\ceil {24\log {2n}/\epsilon^2} `&lt;/font&gt;&lt;/div&gt;" style="rounded=0;whiteSpace=wrap;html=1;strokeWidth=2;" vertex="1" parent="1">
          <mxGeometry x="430" y="210" width="170" height="70" as="geometry" />
        </mxCell>
        <mxCell id="6gbHNIe6kbGb1KUCdrM2-100" style="edgeStyle=orthogonalEdgeStyle;rounded=0;orthogonalLoop=1;jettySize=auto;html=1;exitX=0.5;exitY=1;exitDx=0;exitDy=0;entryX=0.5;entryY=0;entryDx=0;entryDy=0;entryPerimeter=0;" edge="1" parent="1" source="6gbHNIe6kbGb1KUCdrM2-99" target="6gbHNIe6kbGb1KUCdrM2-88">
          <mxGeometry relative="1" as="geometry" />
        </mxCell>
      </root>
    </mxGraphModel>
  </diagram>
</mxfile>
